<svg width="92" height="13" viewBox="0 0 92 13" fill="none" xmlns="http://www.w3.org/2000/svg">
<path d="M9.888 11.8525L5.984 0.684539H4.272L0.368 11.8525H1.728L2.848 8.55654H7.36L8.48 11.8525H9.888ZM7.024 7.37254H3.168L5.056 1.93254H5.136L7.024 7.37254ZM11.738 11.8525H16.81C18.458 11.8525 19.69 10.4605 19.69 8.62054C19.69 6.76454 18.298 6.07654 17.498 6.02854V5.93254C18.234 5.82054 19.306 5.22854 19.306 3.56454C19.306 1.82054 18.17 0.684539 16.33 0.684539H11.738V11.8525ZM13.082 6.66854H16.394C17.546 6.66854 18.25 7.27654 18.25 8.39654V8.94054C18.25 10.0605 17.546 10.6685 16.394 10.6685H13.082V6.66854ZM13.082 1.86854H16.17C17.226 1.86854 17.866 2.42854 17.866 3.42054V3.96454C17.866 4.95654 17.226 5.51654 16.17 5.51654H13.082V1.86854ZM26.1271 12.0445C27.9831 12.0445 29.3431 11.0685 30.0471 9.50054L28.9751 8.82854C28.5271 10.0445 27.5511 10.8445 26.1271 10.8445C24.2071 10.8445 23.0711 9.45254 23.0711 7.16454V5.50054C23.0711 3.21254 24.2071 1.69254 26.1271 1.69254C27.5031 1.69254 28.4311 2.44454 28.8791 3.59654L29.9671 2.94054C29.2631 1.38854 27.9831 0.492538 26.1271 0.492538C23.3111 0.492538 21.6311 2.60454 21.6311 6.33254C21.6311 10.0605 23.3111 12.0445 26.1271 12.0445ZM35.9099 11.8525H39.6539C42.4379 11.8525 44.2299 9.99654 44.2299 6.26854C44.2299 2.54054 42.4379 0.684539 39.6539 0.684539H35.9099V11.8525ZM37.2539 10.6685V1.86854H39.6539C41.4939 1.86854 42.7899 3.14854 42.7899 5.35654V7.18054C42.7899 9.38854 41.4939 10.6685 39.6539 10.6685H37.2539ZM53.4603 11.8525V10.6685H47.9883V6.79654H53.1403V5.61254H47.9883V1.86854H53.4603V0.684539H46.6443V11.8525H53.4603ZM59.1084 12.0445C61.5084 12.0445 62.9484 10.7325 62.9484 8.68454C62.9484 7.02054 62.0044 6.06054 59.8284 5.56454L58.9164 5.35654C57.5084 5.03654 56.8204 4.55654 56.8204 3.50054C56.8204 2.30054 57.7004 1.67654 59.1244 1.67654C60.4204 1.67654 61.2684 2.20454 61.8764 3.05254L62.8844 2.31654C62.0524 1.13254 60.8684 0.492538 59.1884 0.492538C56.9964 0.492538 55.4924 1.56454 55.4924 3.54854C55.4924 5.26054 56.6124 6.15654 58.6444 6.62054L59.5564 6.82854C61.0284 7.16454 61.6204 7.69254 61.6204 8.74854C61.6204 10.0285 60.7564 10.8605 59.1564 10.8605C57.8604 10.8605 56.9324 10.3005 56.1484 9.26054L55.1564 10.0925C56.0524 11.3085 57.3164 12.0445 59.1084 12.0445ZM69.2213 11.8525V10.7325H67.6533V1.80454H69.2213V0.684539H64.7413V1.80454H66.3093V10.7325H64.7413V11.8525H69.2213ZM78.9075 11.8525H80.1555V6.10854H76.3795V7.29254H78.8435V8.39654C78.8435 10.0445 77.5475 10.8445 75.9955 10.8445C73.8675 10.8445 72.5555 9.37254 72.5555 7.16454V5.35654C72.5555 3.14854 73.8995 1.69254 75.8675 1.69254C77.2755 1.69254 78.3155 2.42854 78.8275 3.61254L79.9315 2.94054C79.2115 1.48454 77.8675 0.492538 75.8675 0.492538C73.0035 0.492538 71.1155 2.55654 71.1155 6.26854C71.1155 10.0125 73.0195 12.0445 75.7555 12.0445C77.4515 12.0445 78.5875 11.2605 78.8595 10.2205H78.9075V11.8525ZM89.5845 11.8525H91.1365V0.684539H89.8245V9.98054H89.7765L88.4325 7.50054L84.3525 0.684539H82.8005V11.8525H84.1125V2.55654H84.1605L85.5045 5.03654L89.5845 11.8525Z" fill="#151515"/>
</svg>
