<svg width="23" height="15" viewBox="0 0 23 15" fill="none" xmlns="http://www.w3.org/2000/svg">
<path d="M11.155 0.878906C6.89246 0.878906 3.02693 3.211 0.174565 6.99895C-0.0581883 7.30929 -0.0581883 7.74285 0.174565 8.05318C3.02693 11.8457 6.89246 14.1778 11.155 14.1778C15.4176 14.1778 19.2831 11.8457 22.1355 8.05775C22.3683 7.74741 22.3683 7.31385 22.1355 7.00351C19.2831 3.211 15.4176 0.878906 11.155 0.878906ZM11.4608 12.2108C8.63127 12.3888 6.29461 10.0567 6.47259 7.22257C6.61863 4.88591 8.51261 2.99194 10.8493 2.8459C13.6788 2.66791 16.0155 5.00001 15.8375 7.83412C15.6869 10.1662 13.7929 12.0602 11.4608 12.2108ZM11.3193 10.0476C9.79503 10.1434 8.53543 8.88836 8.63583 7.36405C8.71341 6.10444 9.7357 5.08672 10.9953 5.00457C12.5196 4.90873 13.7792 6.16377 13.6788 7.68808C13.5967 8.95225 12.5744 9.96997 11.3193 10.0476Z" fill="#888888"/>
</svg>
