<svg width="157" height="66" viewBox="0 0 157 66" fill="none" xmlns="http://www.w3.org/2000/svg">
<path d="M24.6087 59.9471C24.4961 59.2528 24.4085 58.7523 24.371 58.3082C23.8451 58.137 23.2974 58.0421 22.7446 58.0267C20.9868 58.0267 20.0172 59.0088 20.0172 60.2286C20.0172 61.3484 20.943 62.0052 22.094 62.6057C22.9885 63.0874 23.4764 63.5441 23.4764 64.2071C23.4864 64.3645 23.463 64.5221 23.4075 64.6697C23.352 64.8173 23.2658 64.9513 23.1546 65.0631C23.0435 65.1749 22.9098 65.2617 22.7626 65.318C22.6153 65.3743 22.4578 65.3986 22.3004 65.3894C21.1494 65.3894 20.5113 64.1758 20.2549 63.4565L19.8232 63.5878C19.8873 64.2226 20.0066 64.8505 20.1798 65.4645C20.4255 65.5684 20.6785 65.6541 20.9367 65.721C21.3113 65.8129 21.6957 65.8591 22.0815 65.8586C23.858 65.8586 24.9778 64.8514 24.9778 63.5753C24.9778 62.4181 24.1145 61.7738 22.8884 61.167C21.9063 60.6603 21.4559 60.285 21.4559 59.6156C21.4517 59.4674 21.4775 59.3198 21.5317 59.1817C21.5859 59.0437 21.6675 58.918 21.7714 58.8123C21.8754 58.7065 21.9998 58.6229 22.1369 58.5664C22.274 58.5099 22.4211 58.4816 22.5694 58.4833C23.539 58.4833 23.9081 59.3028 24.177 60.0285L24.6087 59.9597V59.9471ZM30.2386 64.326C29.8886 64.6211 29.4454 64.7829 28.9875 64.7826C28.4496 64.7826 27.4299 64.3135 27.4299 62.7183C27.4299 61.5611 27.849 60.9355 28.3995 60.9355C28.8477 60.9934 29.2582 61.2165 29.5505 61.5611C29.62 61.6388 29.7159 61.6878 29.8195 61.6987C29.9696 61.6614 30.1031 61.5756 30.1993 61.4545C30.2955 61.3334 30.3489 61.1839 30.3513 61.0293C30.3513 60.8917 30.3137 60.7604 30.1136 60.6227C29.8019 60.4393 29.4422 60.3543 29.0814 60.3788C28.3859 60.426 27.718 60.6689 27.1547 61.0794C26.7803 61.3293 26.4713 61.6654 26.2536 62.0594C26.0359 62.4534 25.9159 62.8939 25.9036 63.3439C25.892 63.6783 25.9498 64.0114 26.0734 64.3224C26.1971 64.6333 26.3838 64.9152 26.6219 65.1503C26.8599 65.3854 27.1441 65.5686 27.4566 65.6884C27.769 65.8081 28.1028 65.8618 28.437 65.8461C28.8485 65.8142 29.2474 65.6896 29.6038 65.4816C29.9603 65.2736 30.265 64.9876 30.4951 64.645L30.2512 64.3635L30.2386 64.326ZM36.8632 65.6709V65.3081C36.2377 65.2268 36.2001 65.2018 36.2001 64.4636V62.2554C36.2001 61.0481 35.6559 60.3788 34.58 60.3788C33.9756 60.4204 33.4077 60.6832 32.9848 61.1169V57.5826C32.249 57.7618 31.5033 57.8975 30.7516 57.9892V58.3145C31.3771 58.3895 31.4272 58.3958 31.4272 59.0776V64.4886C31.4272 65.2268 31.3521 65.2768 30.664 65.3331V65.6959H33.5103V65.3331C33.0474 65.2643 32.9848 65.2143 32.9848 64.5262V61.5611C33.0946 61.4539 33.2248 61.3698 33.3678 61.3139C33.5107 61.258 33.6634 61.2315 33.8168 61.2358C34.2735 61.2358 34.6488 61.5235 34.6488 62.3805V64.5262C34.6488 65.1955 34.5925 65.2518 34.0232 65.3331V65.6959L36.8632 65.6709ZM40.2787 60.3538C39.9051 60.3458 39.5337 60.4143 39.1876 60.5552C38.8414 60.6961 38.5277 60.9063 38.2658 61.1729C38.0039 61.4395 37.7993 61.7568 37.6646 62.1054C37.5299 62.4541 37.4679 62.8266 37.4825 63.2C37.4775 63.5552 37.546 63.9076 37.6836 64.2351C37.8213 64.5626 38.0252 64.8581 38.2824 65.103C38.5397 65.348 38.8448 65.5371 39.1787 65.6585C39.5125 65.7799 39.8679 65.831 40.2224 65.8085C40.5931 65.822 40.9624 65.757 41.3061 65.6178C41.6499 65.4786 41.9604 65.2683 42.2173 65.0008C42.4742 64.7333 42.6717 64.4145 42.7969 64.0654C42.922 63.7162 42.972 63.3446 42.9436 62.9748C42.9497 62.6252 42.8847 62.278 42.7523 61.9543C42.62 61.6306 42.4232 61.3373 42.174 61.0921C41.9247 60.8469 41.6281 60.655 41.3023 60.5281C40.9764 60.4011 40.6282 60.3418 40.2787 60.3538ZM40.0973 60.7979C40.8104 60.7979 41.2233 61.7487 41.2233 63.3001C41.2233 65.0203 40.7729 65.3456 40.3413 65.3456C39.6094 65.3456 39.2028 64.2384 39.2028 62.7684C39.2028 61.4234 39.6219 60.7791 40.0973 60.7791V60.7979ZM46.5968 60.3788C46.2231 60.3708 45.8518 60.4394 45.5057 60.5802C45.1595 60.7211 44.8458 60.9313 44.5839 61.1979C44.322 61.4645 44.1173 61.7819 43.9826 62.1305C43.8479 62.4791 43.786 62.8516 43.8006 63.225C43.7956 63.5802 43.864 63.9326 44.0017 64.2601C44.1393 64.5876 44.3432 64.8831 44.6005 65.128C44.8578 65.373 45.1629 65.5621 45.4968 65.6835C45.8306 65.8049 46.1859 65.856 46.5405 65.8336C46.9111 65.847 47.2804 65.782 47.6242 65.6428C47.968 65.5036 48.2785 65.2933 48.5354 65.0258C48.7923 64.7583 48.9898 64.4395 49.1149 64.0904C49.2401 63.7412 49.2901 63.3696 49.2616 62.9998C49.2678 62.6502 49.2027 62.303 49.0704 61.9793C48.9381 61.6557 48.7413 61.3623 48.492 61.1171C48.2427 60.8719 47.9461 60.68 47.6203 60.5531C47.2945 60.4261 46.9463 60.3668 46.5968 60.3788ZM46.4154 60.8229C47.1285 60.8229 47.5414 61.7738 47.5414 63.3251C47.5414 65.0454 47.091 65.3706 46.6593 65.3706C45.9274 65.3706 45.5209 64.2634 45.5209 62.7934C45.5209 61.4485 45.9462 60.8041 46.4154 60.8041V60.8229ZM52.8523 65.6959V65.3331C52.1517 65.2643 52.0891 65.2143 52.0891 64.4323V57.5513C51.3432 57.742 50.5842 57.878 49.8184 57.9579V58.2707C50.5065 58.3582 50.5315 58.402 50.5315 59.1027V64.4011C50.5315 65.1517 50.4815 65.2205 49.7809 65.3018V65.6647L52.8523 65.6959ZM57.0184 61.8676C56.9544 61.4454 56.8646 61.0276 56.7495 60.6165C56.3805 60.4658 55.9843 60.3933 55.5859 60.4038C54.2598 60.4038 53.5342 61.167 53.5342 62.0552C53.5342 62.9435 54.4537 63.4377 55.0793 63.7505C55.7048 64.0633 55.9738 64.376 55.9738 64.7639C55.9794 64.853 55.9658 64.9422 55.9341 65.0256C55.9023 65.109 55.8531 65.1846 55.7897 65.2474C55.7263 65.3102 55.6502 65.3588 55.5665 65.3897C55.4828 65.4207 55.3934 65.4334 55.3044 65.427C54.5913 65.427 54.0534 64.67 53.7656 63.9319L53.3903 64.0007C53.4163 64.493 53.4812 64.9824 53.5842 65.4645C54.0586 65.7332 54.5966 65.8693 55.1418 65.8586C56.1489 65.8586 57.2875 65.3144 57.2875 64.1509C57.2875 63.2501 56.5806 62.8309 55.6423 62.393C55.0542 62.1365 54.7727 61.8676 54.7727 61.4923C54.7709 61.3216 54.8348 61.1569 54.9513 61.0322C55.0678 60.9075 55.2279 60.8326 55.3983 60.8229C55.905 60.8229 56.2803 61.2358 56.6494 62.0177L57.0184 61.8926V61.8676Z" fill="#808285"/>
<path d="M4.77283 53.9859V53.598C3.91582 53.5292 3.82824 53.4103 3.82824 52.4845V47.9868C3.82824 47.011 3.90331 46.9171 4.77283 46.8483V46.4667H1.25098V46.8483C2.10798 46.9171 2.19556 47.011 2.19556 47.9868V52.4845C2.19556 53.4229 2.08921 53.5292 1.25098 53.598V53.9859H4.77283ZM11.5225 53.9859V53.623C10.9282 53.548 10.8594 53.5292 10.8594 52.791V50.4578C10.8594 49.3818 10.3277 48.6687 9.33308 48.6687C8.98174 48.6722 8.64038 48.7859 8.35722 48.9939C8.107 49.1441 7.90056 49.313 7.64408 49.4756V48.6562C6.93462 48.8636 6.20827 49.008 5.47344 49.0878V49.3943C6.04895 49.4944 6.09899 49.5444 6.09899 50.245V52.7785C6.09899 53.5292 6.03644 53.548 5.32332 53.623V53.9859H8.19457V53.623C7.71915 53.5605 7.65661 53.5167 7.65661 52.8098V49.8947C7.89627 49.681 8.20506 49.5611 8.52613 49.557C8.97027 49.557 9.31433 49.8259 9.31433 50.6329V52.7785C9.31433 53.5292 9.25175 53.5605 8.74506 53.623V53.9859H11.5225ZM15.6074 53.5855L15.4822 53.1977C15.2865 53.2886 15.0725 53.3335 14.8567 53.329C14.5377 53.329 14.1811 53.1664 14.1811 52.2843V49.3443H15.3196C15.5073 49.2754 15.5198 48.9377 15.3947 48.8063H14.1936V47.1799L14.0122 47.0985L12.636 47.9868V48.8063H12.1918L11.8478 49.2129L11.9103 49.3443H12.636V52.6722C12.6015 52.8688 12.6145 53.0708 12.674 53.2613C12.7335 53.4518 12.8376 53.6253 12.9778 53.7674C13.118 53.9094 13.2902 54.0159 13.4799 54.0778C13.6697 54.1397 13.8715 54.1554 14.0685 54.1235C14.248 54.1112 14.4239 54.0666 14.5877 53.9921L15.5948 53.5855H15.6074ZM20.299 52.6159C19.9322 52.9309 19.4624 53.1001 18.9791 53.0913C18.1408 53.0913 17.4089 52.4282 17.3839 51.1709C18.5474 51.1271 20.055 51.0207 20.2302 50.9832C20.5242 50.9394 20.5742 50.808 20.5742 50.5516C20.5579 50.046 20.3447 49.5668 19.9801 49.2162C19.6155 48.8656 19.1283 48.6714 18.6225 48.6749C17.9315 48.7054 17.2781 48.9985 16.7959 49.4944C16.5068 49.768 16.2766 50.0978 16.1196 50.4635C15.9625 50.8293 15.8819 51.2232 15.8826 51.6213C15.8684 51.9536 15.9235 52.2853 16.0442 52.5953C16.1649 52.9053 16.3487 53.1869 16.584 53.4221C16.8192 53.6573 17.1008 53.8411 17.4107 53.9619C17.7207 54.0826 18.0524 54.1376 18.3848 54.1235C18.8128 54.0973 19.2286 53.9703 19.5982 53.7528C19.9678 53.5354 20.2808 53.2337 20.5117 52.8724L20.2865 52.5846L20.299 52.6159ZM18.4223 49.1191C18.879 49.1191 19.1354 49.7446 19.1354 50.3326C19.1354 50.5391 19.0729 50.6016 18.854 50.6016H17.459C17.5403 49.7133 17.9719 49.0878 18.4223 49.0878V49.1191ZM24.0523 53.9859V53.623C23.3517 53.548 23.2891 53.5042 23.2891 52.7222V45.8412C22.5426 46.0309 21.7839 46.1689 21.0184 46.254V46.5668C21.7065 46.6481 21.7315 46.6982 21.7315 47.3988V52.6972C21.7315 53.4416 21.6814 53.5167 20.9808 53.598V53.9608L24.0523 53.9859ZM27.4866 53.9859V53.623C26.7859 53.548 26.7234 53.5042 26.7234 52.7222V45.8412C25.9769 46.0309 25.2181 46.1689 24.4526 46.254V46.5668C25.1407 46.6481 25.1658 46.6982 25.1658 47.3988V52.6972C25.1658 53.4416 25.1157 53.5167 24.4151 53.598V53.9608L27.4866 53.9859ZM32.4159 52.6159C32.052 52.9316 31.5839 53.1009 31.1022 53.0913C30.2577 53.0913 29.5321 52.4282 29.5071 51.1709C30.6706 51.1271 32.1719 51.0207 32.3533 50.9832C32.6473 50.9394 32.6974 50.808 32.6974 50.5516C32.6811 50.046 32.4679 49.5668 32.1033 49.2162C31.7387 48.8656 31.2515 48.6714 30.7457 48.6749C30.0543 48.7041 29.4006 48.9974 28.9191 49.4944C28.6298 49.7702 28.4002 50.1023 28.2442 50.4702C28.0882 50.8382 28.0092 51.2342 28.012 51.6338C27.9978 51.9662 28.0529 52.2978 28.1736 52.6078C28.2944 52.9178 28.4782 53.1993 28.7134 53.4346C28.9487 53.6698 29.2302 53.8536 29.5402 53.9744C29.8502 54.0951 30.1818 54.1502 30.5142 54.136C30.9433 54.1108 31.3603 53.9842 31.7311 53.7667C32.1019 53.5493 32.4159 53.2471 32.6473 52.8849L32.4159 52.5971V52.6159ZM30.5392 49.1191C31.0022 49.1191 31.2586 49.7446 31.2586 50.3326C31.2586 50.5391 31.1898 50.6016 30.9771 50.6016H29.5821C29.6572 49.7133 30.0951 49.0878 30.5392 49.0878V49.1191ZM37.8394 52.6347C37.4908 52.9322 37.0467 53.0943 36.5883 53.0913C36.0503 53.0913 35.0307 52.6284 35.0307 51.0332C35.0307 49.8697 35.4498 49.2504 36.0003 49.2504C36.4481 49.3095 36.8582 49.5323 37.1513 49.876C37.2189 49.957 37.3154 50.0086 37.4203 50.0199C37.5704 49.9826 37.7039 49.8968 37.8 49.7757C37.8962 49.6546 37.9497 49.5051 37.952 49.3505C37.952 49.2066 37.9145 49.0815 37.7143 48.9439C37.4135 48.7481 37.0596 48.6498 36.7009 48.6624C36.0027 48.7054 35.3316 48.9486 34.768 49.363C34.3933 49.6112 34.084 49.946 33.8662 50.3391C33.6484 50.7322 33.5286 51.172 33.5169 51.6213C33.5062 51.9554 33.5647 52.2882 33.6886 52.5987C33.8126 52.9091 33.9993 53.1907 34.2372 53.4256C34.475 53.6605 34.7589 53.8438 35.0709 53.9639C35.3829 54.084 35.7164 54.1383 36.0503 54.1235C36.4626 54.0918 36.8621 53.9666 37.2187 53.7574C37.5754 53.5482 37.8796 53.2605 38.1084 52.9162L37.8644 52.6347H37.8394ZM42.2183 53.5855L42.0931 53.1977C41.8974 53.2886 41.6834 53.3335 41.4676 53.329C41.1486 53.329 40.792 53.1664 40.792 52.2843V49.3443H41.9117C42.1057 49.2754 42.1182 48.9377 41.9931 48.8063H40.792V47.1799L40.6106 47.0985L39.2344 47.9868V48.8063H38.784L38.44 49.2129L38.5088 49.3443H39.2344V52.6722C39.199 52.8706 39.2121 53.0746 39.2725 53.2668C39.3329 53.4591 39.4389 53.6339 39.5814 53.7764C39.7239 53.9189 39.8987 54.0249 40.091 54.0853C40.2833 54.1457 40.4873 54.1588 40.6857 54.1235C40.8672 54.1114 41.0452 54.0669 41.2111 53.9921L42.2183 53.5855ZM48.5676 53.3541H48.2611C47.8732 53.3165 47.8107 53.1914 47.8107 52.6034V48.75L46.7535 48.8814C46.3469 48.8814 45.909 48.9502 45.5525 48.9627V49.3067L45.8965 49.363C46.203 49.4318 46.2531 49.5131 46.2531 50.0386V52.9474C46.149 53.0527 46.0239 53.135 45.8859 53.1889C45.748 53.2428 45.6003 53.2671 45.4523 53.2602C45.0395 53.2602 44.6454 53.0037 44.6454 52.2406V50.4953C44.6454 49.8259 44.6454 49.2442 44.6829 48.725C44.3764 48.7625 44.0073 48.8188 43.6132 48.8563C43.2191 48.8939 42.8188 48.9252 42.4622 48.9377V49.2817L42.7312 49.338C43.0377 49.4068 43.0878 49.4694 43.0878 49.9635V52.5283C43.0642 52.7395 43.0874 52.9533 43.1559 53.1545C43.2244 53.3557 43.3364 53.5393 43.4839 53.6922C43.6315 53.8451 43.811 53.9636 44.0096 54.0392C44.2082 54.1149 44.421 54.1458 44.6329 54.1297C45.0152 54.1259 45.3885 54.0131 45.7088 53.8044C45.9051 53.678 46.0876 53.5312 46.2531 53.3665V54.0484L46.3594 54.1297C46.6909 54.0484 47.0475 53.9671 47.4166 53.8983C47.7857 53.8295 48.1673 53.7544 48.5676 53.7106V53.3603V53.3541ZM54.3226 53.4917L54.2101 53.1288C54.085 53.1712 53.9542 53.1944 53.8222 53.1977C53.597 53.1977 53.4156 53.035 53.4156 52.5158V50.4202C53.4417 50.1662 53.4051 49.9097 53.3091 49.6731C53.2132 49.4364 53.0607 49.2269 52.8651 49.0627C52.5061 48.791 52.064 48.6518 51.614 48.6687C50.8848 48.8076 50.1898 49.0881 49.5685 49.4944C49.287 49.682 49.1494 49.8509 49.1494 50.0386C49.1494 50.3639 49.6185 50.5954 49.9501 50.5954C50.0603 50.6028 50.1694 50.5682 50.2552 50.4986C50.3411 50.429 50.3974 50.3295 50.413 50.22C50.4585 49.9385 50.5676 49.6711 50.732 49.4381C50.784 49.3662 50.8528 49.3081 50.9324 49.2688C51.012 49.2296 51.1 49.2104 51.1887 49.2129C51.5577 49.2129 51.883 49.5695 51.883 50.245V50.7267C51.2708 51.0497 50.6273 51.3096 49.9626 51.5024C49.6989 51.5559 49.4632 51.702 49.2979 51.9143C49.1327 52.1266 49.0489 52.391 49.0618 52.6597C49.0844 53.0691 49.2682 53.4529 49.573 53.7272C49.8778 54.0014 50.2787 54.1439 50.6882 54.1235C51.1433 54.0018 51.5689 53.789 51.9393 53.4979C52.0003 53.6584 52.1069 53.7975 52.2459 53.8983C52.4411 54.0636 52.6908 54.1506 52.9465 54.1423L54.2851 53.5167L54.3226 53.4917ZM51.9018 53.0725C51.7768 53.1804 51.6164 53.2384 51.4514 53.2352C51.2614 53.2117 51.0844 53.1261 50.948 52.9917C50.8116 52.8573 50.7233 52.6817 50.6969 52.4921C50.6706 52.3024 50.7075 52.1093 50.8021 51.9428C50.8967 51.7763 51.0435 51.6457 51.2199 51.5712L51.9018 51.1959V53.0725ZM57.5317 53.9859V53.623C56.8311 53.548 56.7686 53.5042 56.7686 52.7222V45.8412C56.0221 46.0309 55.2633 46.1689 54.4978 46.254V46.5668C55.1859 46.6481 55.211 46.6982 55.211 47.3988V52.6972C55.211 53.4416 55.1609 53.5167 54.4603 53.598V53.9608L57.5317 53.9859Z" fill="#808285"/>
<path d="M8.00078 34.7314H5.12952V35.1067C5.94899 35.1442 6.18669 35.3194 6.2555 35.7322C6.33955 36.3814 6.37718 37.0357 6.3681 37.6902V39.742H6.31804L2.18316 34.7314H0V35.1067C0.191076 35.0981 0.381475 35.135 0.555489 35.2144C0.729503 35.2938 0.882135 35.4134 1.00087 35.5634C1.20104 35.8198 1.20105 36.0325 1.20105 36.8145V39.2603C1.20891 39.9107 1.17129 40.5607 1.08845 41.2058C1.03841 41.6499 0.794451 41.8314 0.118856 41.8814V42.2568H3.02764V41.8814C2.14562 41.8501 1.93921 41.6375 1.87665 41.1933C1.80608 40.5515 1.77264 39.9061 1.77654 39.2603V36.6956H1.81407L6.34931 42.3756H6.97486V37.7027C6.96634 37.0441 7.004 36.3856 7.0875 35.7322C7.13754 35.3131 7.36899 35.1067 8.01956 35.1067V34.7314H8.00078ZM13.5307 41.7625L13.4118 41.3935C13.2903 41.4419 13.161 41.4673 13.0302 41.4686C12.7988 41.4686 12.6236 41.2996 12.6236 40.7867V38.6911C12.648 38.4372 12.6107 38.1812 12.5149 37.9449C12.419 37.7085 12.2675 37.4988 12.0731 37.3336C11.7146 37.0601 11.2727 36.9187 10.822 36.9333C10.0934 37.0714 9.39997 37.3543 8.78271 37.7653C8.50122 37.9529 8.35734 38.1156 8.35734 38.3033C8.35734 38.6348 8.83275 38.8662 9.16429 38.8662C9.27387 38.8735 9.38211 38.8388 9.46695 38.769C9.55179 38.6993 9.60688 38.5998 9.62097 38.4909C9.67176 38.2109 9.78043 37.9446 9.94001 37.709C9.99219 37.6358 10.0619 37.5767 10.1427 37.5374C10.2236 37.4981 10.3131 37.4797 10.4029 37.4838C10.772 37.4838 11.091 37.8341 11.091 38.5159V38.9976C10.4807 39.3184 9.83932 39.5761 9.17681 39.767C8.91271 39.8229 8.67684 39.9703 8.51087 40.1832C8.3449 40.3961 8.25949 40.6608 8.26976 40.9306C8.29398 41.3405 8.47913 41.7243 8.78489 41.9984C9.09065 42.2726 9.49233 42.4149 9.90247 42.3944C10.3578 42.2734 10.7836 42.0605 11.1536 41.7688C11.2193 41.9248 11.3251 42.0608 11.4601 42.1629C11.6544 42.3305 11.9042 42.4197 12.1607 42.4131L13.5056 41.7876L13.5307 41.7625ZM11.1035 41.3372C10.9834 41.4497 10.8239 41.5104 10.6594 41.5061C10.4425 41.4916 10.2401 41.3922 10.096 41.2294C9.95197 41.0666 9.87794 40.8536 9.88995 40.6366C9.88476 40.4644 9.93392 40.295 10.0305 40.1524C10.1271 40.0097 10.2661 39.9012 10.4279 39.8421C10.6594 39.7107 10.8846 39.5794 11.1035 39.4668V41.3434V41.3372ZM18.3411 40.5802L18.1472 40.9181C17.9991 41.2199 17.7583 41.4665 17.4601 41.6218C17.1618 41.7772 16.8218 41.8331 16.4895 41.7813H15.7889C16.6959 40.1549 17.4716 38.8099 18.3912 37.2273L18.2911 37.0772H15.3197C14.8881 37.0772 14.7505 37.0084 14.6566 36.8269H14.3376C14.2193 37.4212 14.0668 38.0081 13.881 38.5847L14.2751 38.7161L14.4565 38.3721C14.5575 38.0979 14.7488 37.8662 14.9989 37.7151C15.2489 37.5639 15.5429 37.5022 15.8327 37.5401H16.4582C15.6262 39.0289 14.7755 40.5302 13.8059 42.1004L13.9185 42.2505H18.1597L18.7039 40.7304L18.3224 40.5802H18.3411ZM24.434 41.7625L24.3151 41.3935C24.1935 41.4412 24.0642 41.4666 23.9336 41.4686C23.7021 41.4686 23.5269 41.2996 23.5269 40.7867V38.6911C23.5514 38.4372 23.514 38.1812 23.4182 37.9449C23.3224 37.7085 23.1708 37.4988 22.9765 37.3336C22.618 37.0601 22.176 36.9187 21.7254 36.9333C20.9968 37.0714 20.3033 37.3543 19.6861 37.7653C19.4046 37.9529 19.2607 38.1156 19.2607 38.3033C19.2607 38.6348 19.7361 38.8662 20.0677 38.8662C20.1772 38.8735 20.2855 38.8388 20.3703 38.769C20.4552 38.6993 20.5102 38.5998 20.5243 38.4909C20.5723 38.2101 20.6812 37.9432 20.8433 37.709C20.8955 37.6358 20.9653 37.5767 21.0461 37.5374C21.127 37.4981 21.2164 37.4797 21.3062 37.4838C21.6753 37.4838 21.9943 37.8341 21.9943 38.5159V38.9976C21.384 39.3184 20.7427 39.5761 20.0802 39.767C19.816 39.8229 19.5802 39.9703 19.4142 40.1832C19.2482 40.3961 19.1628 40.6608 19.1731 40.9306C19.1973 41.3405 19.3825 41.7243 19.6882 41.9984C19.994 42.2726 20.3957 42.4149 20.8058 42.3944C21.2612 42.2734 21.6869 42.0605 22.0569 41.7688C22.1205 41.9261 22.2266 42.0626 22.3634 42.1629C22.5571 42.3316 22.8073 42.4209 23.064 42.4131L24.409 41.7876L24.434 41.7625ZM22.0069 41.3372C21.8868 41.4497 21.7272 41.5104 21.5627 41.5061C21.3458 41.4916 21.1434 41.3922 20.9994 41.2294C20.8553 41.0666 20.7813 40.8536 20.7933 40.6366C20.7881 40.4644 20.8373 40.295 20.9339 40.1524C21.0304 40.0097 21.1695 39.9012 21.3313 39.8421C21.5627 39.7107 21.7879 39.5794 22.0069 39.4668V41.3434V41.3372ZM27.0113 38.1406V36.8895C26.2998 37.1099 25.5687 37.2607 24.8281 37.3399V37.6527C25.3911 37.784 25.4536 37.8404 25.4536 38.4597V41.0369C25.4536 41.7313 25.3786 41.8001 24.728 41.8564V42.2192H27.9433V41.8564C27.0738 41.8001 27.0113 41.7501 27.0113 41.0369V38.7161C27.2114 38.272 27.4179 38.2032 27.6368 38.2032C27.8339 38.2155 28.0202 38.2976 28.1623 38.4346C28.2141 38.4748 28.2762 38.4996 28.3414 38.5062C28.4067 38.5129 28.4725 38.5011 28.5313 38.4721C28.7089 38.4114 28.8639 38.2981 28.9756 38.1473C29.0873 37.9964 29.1505 37.8152 29.1569 37.6277C29.1561 37.5299 29.1358 37.4333 29.0971 37.3436C29.0584 37.2539 29.0021 37.1728 28.9315 37.1052C28.861 37.0375 28.7776 36.9847 28.6863 36.9498C28.595 36.9149 28.4976 36.8987 28.4 36.902C27.8933 36.902 27.4554 37.3962 27.0488 38.1094L27.0113 38.1406ZM31.5778 37.3587V34.1371C30.83 34.3197 30.0717 34.4555 29.307 34.5437V34.894C29.9889 34.9441 30.0264 35.0004 30.0264 35.6822V41.9377C30.6773 42.2088 31.3733 42.3552 32.0782 42.3693C32.4821 42.3915 32.8863 42.3308 33.2659 42.191C33.6455 42.0512 33.9924 41.8352 34.2854 41.5563C34.5784 41.2773 34.8112 40.9414 34.9695 40.5692C35.1278 40.1969 35.2083 39.7962 35.206 39.3917C35.2169 39.0654 35.1618 38.7403 35.0439 38.4359C34.926 38.1315 34.7477 37.854 34.5198 37.6203C34.2919 37.3866 34.0191 37.2013 33.7178 37.0757C33.4164 36.9501 33.0928 36.8868 32.7663 36.8895C32.4925 36.9055 32.2265 36.9871 31.9907 37.1272L31.5652 37.3149L31.5778 37.3587ZM31.5778 37.7528C31.7353 37.7009 31.8999 37.6734 32.0657 37.6715C32.8477 37.6715 33.5357 38.297 33.5357 39.7232C33.5357 41.1495 32.9477 41.9502 32.2846 41.9377C32.1404 41.9266 32.002 41.8757 31.8849 41.7907C31.7679 41.7056 31.6767 41.5898 31.6216 41.456C31.5679 41.3188 31.5444 41.1715 31.5528 41.0244V37.7528H31.5778ZM41.2863 41.7625L41.1675 41.3935C41.0458 41.4412 40.9166 41.4666 40.7859 41.4686C40.5544 41.4686 40.3793 41.2996 40.3793 40.7867V38.6911C40.4037 38.4372 40.3664 38.1812 40.2705 37.9449C40.1747 37.7085 40.0231 37.4988 39.8288 37.3336C39.4703 37.0601 39.0284 36.9187 38.5777 36.9333C37.8488 37.0703 37.1551 37.3532 36.5384 37.7653C36.2569 37.9529 36.113 38.1156 36.113 38.3033C36.113 38.6348 36.5885 38.8662 36.92 38.8662C37.0296 38.8735 37.1378 38.8388 37.2226 38.769C37.3075 38.6993 37.3626 38.5998 37.3766 38.4909C37.4246 38.2101 37.5335 37.9432 37.6957 37.709C37.7475 37.6353 37.8171 37.576 37.898 37.5366C37.979 37.4973 38.0687 37.4791 38.1586 37.4838C38.5276 37.4838 38.8467 37.8341 38.8467 38.5159V38.9976C38.2363 39.3184 37.595 39.5761 36.9325 39.767C36.6684 39.8229 36.4325 39.9703 36.2665 40.1832C36.1006 40.3961 36.0152 40.6608 36.0254 40.9306C36.0497 41.3405 36.2348 41.7243 36.5406 41.9984C36.8463 42.2726 37.248 42.4149 37.6581 42.3944C38.1135 42.2734 38.5392 42.0605 38.9092 41.7688C38.9728 41.9261 39.079 42.0626 39.2158 42.1629C39.4094 42.3316 39.6597 42.4209 39.9164 42.4131L41.2613 41.7876L41.2863 41.7625ZM38.8592 41.3372C38.799 41.3937 38.7282 41.4377 38.6509 41.4666C38.5736 41.4956 38.4913 41.509 38.4088 41.5061C38.193 41.49 37.9922 41.3899 37.8495 41.2273C37.7067 41.0647 37.6335 40.8526 37.6456 40.6366C37.6385 40.464 37.6869 40.2937 37.7837 40.1507C37.8806 40.0077 38.0207 39.8995 38.1836 39.8421C38.4088 39.7107 38.6402 39.5794 38.8592 39.4668V41.3434V41.3372ZM46.86 37.0772H44.7206V37.4275C45.3461 37.5088 45.4337 37.6339 45.3086 38.053C45.0646 38.8225 44.7581 39.7483 44.4391 40.6053L43.5696 38.0405C43.4257 37.6089 43.4257 37.4775 44.0387 37.415V37.0647H41.0674V37.415C41.5928 37.4713 41.6929 37.6151 41.9494 38.1281C42.2059 38.6411 42.8314 40.28 43.4695 42.0503C43.5442 42.2148 43.5744 42.396 43.5571 42.5758C43.4853 42.7754 43.3952 42.9681 43.2881 43.1513C43.0677 43.4679 42.7618 43.7152 42.406 43.8644C42.1496 44.0083 42.062 44.1271 42.062 44.3148C42.062 44.6776 42.575 45.0029 42.9315 45.0029C43.0394 45.0142 43.1476 44.9844 43.2346 44.9195C43.3215 44.8546 43.3808 44.7593 43.4007 44.6526C43.5696 44.0896 43.8135 43.3389 44.5642 41.456C45.2398 39.8046 45.5838 38.9538 45.8904 38.2595C46.1969 37.5651 46.2782 37.5088 46.86 37.415V37.0647V37.0772ZM51.3952 40.8805C51.0335 41.2006 50.5644 41.3725 50.0816 41.3622C49.2371 41.3622 48.5114 40.6929 48.4802 39.4418C49.6437 39.3917 51.1513 39.2854 51.3327 39.2541C51.6267 39.204 51.6767 39.0789 51.6767 38.8225C51.6588 38.3174 51.4452 37.8392 51.0809 37.4889C50.7166 37.1387 50.2303 36.9439 49.725 36.9458C49.0334 36.9738 48.3791 37.2673 47.8984 37.7653C47.6084 38.0418 47.3783 38.3749 47.2223 38.744C47.0662 39.1131 46.9876 39.5103 46.9913 39.9109C46.9772 40.2433 47.0322 40.575 47.153 40.885C47.2737 41.195 47.4575 41.4765 47.6927 41.7117C47.928 41.947 48.2095 42.1308 48.5195 42.2515C48.8295 42.3723 49.1612 42.4273 49.4935 42.4131C49.9195 42.3899 50.3342 42.2675 50.7045 42.0558C51.0749 41.844 51.3906 41.5487 51.6267 41.1933L51.3952 40.8993V40.8805ZM49.5186 37.39C49.9752 37.39 50.2317 38.0155 50.2317 38.5973C50.2317 38.8099 50.1691 38.8662 49.9502 38.8662L48.5615 38.9038C48.6365 38.0092 49.0682 37.39 49.5186 37.39ZM57.8008 37.0772H55.6865V37.4275C56.3121 37.5213 56.3621 37.6714 56.2057 38.1281C55.9555 38.9163 55.5801 40.0048 55.38 40.4739C55.2611 40.1674 54.7544 38.8788 54.4854 38.0718C54.3165 37.6152 54.3541 37.5088 54.9046 37.4463V37.096H51.9832V37.4463C52.5587 37.5276 52.6964 37.6652 52.9278 38.2282C53.5158 39.6232 54.0475 40.9681 54.6105 42.3881H55.0985C55.8116 40.6053 56.3496 39.2103 56.7937 38.2782C57.0752 37.6527 57.2191 37.5526 57.8008 37.4463V37.096V37.0772Z" fill="#808285"/>
<path d="M62.5297 5.54315C62.317 5.82465 62.1169 6.11866 61.9042 6.41892C61.3753 7.28356 60.9551 8.21011 60.6531 9.1776C59.8921 11.1113 59.5386 13.1813 59.6147 15.258C55.2358 10.0972 45.9401 6.03735 38.0645 11.0855C63.7933 15.1516 74.9031 35.8699 69.1918 65.8275H69.3732C89.0906 48.4935 70.6243 29.9396 67.0274 23.6591C64.2687 18.8298 63.4305 13.3876 65.6137 9.54043C66.6083 7.94528 68.0471 6.25629 69.8362 5.54942C71.158 4.92145 72.6084 4.61136 74.0715 4.64394C75.5346 4.67653 76.9697 5.05088 78.2623 5.73707C79.4751 6.38523 80.5153 7.31393 81.2962 8.44572C82.9852 10.9479 82.5098 15.2517 81.4777 16.9094C80.4455 18.5671 80.677 18.0354 80.189 18.5046C78.9067 19.6994 76.3919 19.7557 75.2409 19.1301C74.5683 18.8701 74.0231 18.3586 73.7208 17.7039C73.6764 17.6245 73.6532 17.5351 73.6532 17.4442C73.6532 17.3533 73.6764 17.264 73.7208 17.1847C73.7674 17.1111 73.8297 17.0489 73.9033 17.0023C73.9768 16.9558 74.0598 16.9262 74.1462 16.9157C74.8553 16.9127 75.5513 16.7239 76.1648 16.3684C76.7783 16.0128 77.2879 15.5027 77.643 14.8889C78.1008 14.0673 78.263 13.1136 78.1025 12.1869C77.9419 11.2602 77.4684 10.4166 76.761 9.79691C76.1641 9.32566 75.4628 9.00468 74.716 8.86099C73.9692 8.71729 73.1989 8.75508 72.4697 8.97118C66.5082 10.8103 67.1525 20.1372 72.7387 23.1399C74.0216 23.8543 75.4617 24.239 76.9299 24.2596C78.2106 24.3117 79.4884 24.1023 80.6855 23.6442C81.8825 23.186 82.9737 22.4887 83.8923 21.5948C84.6216 20.8925 85.2528 20.095 85.7689 19.224C86.6049 17.8272 87.1814 16.2907 87.4704 14.6887C87.8171 14.9716 88.1899 15.2209 88.5839 15.4331C91.7117 17.1159 96.4909 14.8889 97.5418 13.1999C97.8451 12.7673 98.0578 12.2779 98.1673 11.7611C98.1928 11.6405 98.1792 11.5149 98.1286 11.4025C98.078 11.29 97.993 11.1966 97.8858 11.1356C97.8071 11.0924 97.7199 11.0667 97.6303 11.0602C97.5407 11.0538 97.4508 11.0667 97.3666 11.098C94.8579 12.0023 92.094 11.8832 89.6724 10.7665C88.4855 10.2451 87.4875 9.37164 86.8136 8.2643C86.188 7.41981 85.8252 6.38765 85.1934 5.58069C84.0031 3.97741 82.4711 2.65903 80.7082 1.72105C78.593 0.585116 76.2281 -0.00609888 73.8272 0.000786475C71.6377 -0.0223381 69.4729 0.464776 67.5044 1.42353C65.5358 2.38228 63.8177 3.78631 62.486 5.52439" fill="#80C342"/>
<path d="M155.218 42.0003C154.736 39.104 154.442 37.2712 154.205 35.6635C151.755 35.0081 149.234 34.6531 146.698 34.6063C138.998 34.6063 134.406 38.3596 134.406 42.7823C134.406 47.9681 140.43 50.2201 144.252 51.8277C148.731 53.6669 152.009 55.2745 152.009 58.6713C152.009 62.068 149.388 64.1824 144.847 64.1824C138.641 64.1824 135.957 59.5408 135.063 56.7383L133.268 57.0636C133.687 59.2655 134.462 63.219 134.881 64.1824C135.852 64.5748 136.849 64.8967 137.865 65.1457C139.783 65.5935 141.745 65.8243 143.714 65.8338C151.652 65.8338 156.963 61.9741 156.963 57.1574C156.963 51.9653 151.333 49.851 146.642 47.9681C141.95 46.0852 139.06 44.5276 139.06 41.1746C139.06 38.6724 141.087 36.1702 145.685 36.1702C150.877 36.1702 152.491 39.3417 153.504 42.2318L155.237 42.0066L155.218 42.0003Z" fill="white"/>
<path d="M115.908 36.02V34.6813H104.604V36.02C107.957 36.1576 109.058 36.7831 109.296 38.9851C109.587 41.6206 109.699 44.2726 109.634 46.9233V58.6899H109.49L89.4723 34.6813H83.1668V36.1075C84.8808 36.3265 85.8129 36.7331 86.6949 37.784C87.5769 38.8349 87.6583 39.1227 87.6583 42.6195V53.1413C87.6583 57.5201 87.5144 59.8347 87.3642 61.3172C87.1265 63.663 85.8817 64.2823 83.1543 64.445V65.7837H94.5018V64.445C91.2489 64.2573 90.1229 63.6818 89.904 61.2422C89.6722 58.5547 89.5762 55.8572 89.6162 53.1601V41.137H89.7163L109.778 65.7961H111.586V46.9233C111.52 44.2259 111.616 41.5271 111.873 38.8412C112.061 36.7831 113.212 36.1576 115.896 36.02H115.908Z" fill="white"/>
<path d="M132.529 65.7649V64.4262C127.85 64.1384 127.393 63.9007 127.393 59.7846V40.6553C127.393 36.5892 127.85 36.2764 132.529 36.02V34.6813H117.403V36.02C122.082 36.3077 122.545 36.5892 122.545 40.6553V59.7846C122.545 63.8507 122.082 64.1635 117.403 64.4262V65.7649H132.529Z" fill="white"/>
</svg>
