<svg width="28" height="27" viewBox="0 0 28 27" fill="none" xmlns="http://www.w3.org/2000/svg">
<rect x="0.394531" y="0.267578" width="26.8047" height="26.1802" rx="13.0901" fill="#80C342"/>
<path fill-rule="evenodd" clip-rule="evenodd" d="M13.0862 11.0733C13.4094 10.6377 13.5253 10.1787 13.1598 9.77354C12.3395 8.62578 11.7879 7.91601 11.4419 7.5742C10.7841 6.92438 9.70193 7.01228 9.13221 7.57365C8.82621 7.87516 8.72261 7.97871 8.40841 8.29784C6.65828 10.0489 7.7256 13.7506 10.5629 16.5907C13.3996 19.4302 17.101 20.4981 18.8548 18.7433C19.1447 18.4638 19.3902 18.2182 19.5838 18.0136C20.1421 17.4235 20.2269 16.3891 19.5801 15.7171C19.2485 15.3725 18.5717 14.8475 17.3757 13.992C17.0093 13.6644 16.575 13.7354 16.1768 13.9967C15.9853 14.1223 15.8459 14.2495 15.5827 14.5129L15.1047 14.9912C15.0417 15.0542 14.1869 14.6261 13.3571 13.7954C12.5268 12.9644 12.099 12.1095 12.1617 12.0468L12.64 11.5683C12.7235 11.4847 12.7634 11.4442 12.8146 11.3904C12.9213 11.2783 13.0096 11.1765 13.0862 11.0733ZM15.9857 15.8731L16.4638 15.3948C16.6087 15.2498 16.7026 15.1606 16.7789 15.0991C17.8267 15.8516 18.4335 16.3247 18.6813 16.5822C18.8301 16.7368 18.807 17.019 18.6777 17.1557C18.4986 17.3449 18.2661 17.5776 17.9806 17.8529C16.8466 18.9875 13.8587 18.1255 11.4442 15.7085C9.02889 13.2909 8.16727 10.3026 9.29278 9.17646C9.60571 8.85863 9.70486 8.75953 10.0065 8.46232C10.1196 8.35089 10.4277 8.32586 10.5652 8.46177C10.8316 8.72493 11.3258 9.35767 12.0527 10.3703C12.0151 10.417 11.9681 10.4698 11.9109 10.5299C11.8689 10.574 11.8339 10.6095 11.7575 10.686L11.2797 11.1641C10.4668 11.977 11.159 13.3604 12.4746 14.6772C13.7892 15.9931 15.1731 16.6862 15.9857 15.8731ZM14.8317 7.16282C17.5285 7.48971 19.6669 9.62809 19.9938 12.3249L18.7615 12.5303C18.5236 10.358 16.7986 8.633 14.6263 8.39507L14.8317 7.16282ZM14.421 9.62834C16.0687 9.77572 17.381 11.088 17.5284 12.7358L16.2922 12.9418C16.2397 11.8185 15.3383 10.917 14.2149 10.8646L14.421 9.62834Z" fill="white"/>
</svg>
