<svg width="23" height="24" viewBox="0 0 23 24" fill="none" xmlns="http://www.w3.org/2000/svg">
<circle cx="11.5" cy="12.4844" r="11.5" fill="#80C342"/>
<path d="M21.1093 11.8217H20.1152C20.094 11.8217 20.0755 11.83 20.0553 11.8336C19.7544 10.1318 18.2968 8.83951 16.4942 8.83951C14.7235 8.83951 13.2463 10.0857 12.9017 11.7435C12.458 11.3608 11.9975 11.1626 11.5256 11.159C11.5213 11.159 11.517 11.159 11.5127 11.159C11.0339 11.159 10.5617 11.3591 10.1021 11.7504C9.76945 10.089 8.32708 8.83951 6.55369 8.83951C4.63915 8.83951 3.06887 10.2975 2.90154 12.1563C2.89591 12.156 2.89094 12.153 2.88497 12.153H1.89092C1.70768 12.153 1.55957 12.3015 1.55957 12.4844C1.55957 12.6673 1.70768 12.8157 1.89092 12.8157H2.88497C2.89094 12.8157 2.89591 12.8127 2.90154 12.8124C3.06887 14.6713 4.63915 16.1292 6.55369 16.1292C8.53484 16.1292 10.0988 14.5682 10.1681 12.6176C10.629 12.0914 11.0809 11.8217 11.5127 11.8217C11.5153 11.8217 11.5183 11.8217 11.5206 11.8217C11.9478 11.825 12.3888 12.0937 12.8321 12.6153C12.902 14.5672 14.5127 16.1292 16.4942 16.1292C18.5208 16.1292 20.1152 14.4973 20.1152 12.4844H21.1093C21.2925 12.4844 21.4406 12.3359 21.4406 12.153C21.4406 11.9701 21.2925 11.8217 21.1093 11.8217Z" fill="white"/>
</svg>
